<?xml version="1.0" standalone="no"?>
<svg viewBox="0 0 200 200" xmlns="http://www.w3.org/2000/svg">
  <path fill="#7362A3" d="M37.1,-52.8C52.2,-48.1,71.4,-44.7,81.9,-33.9C92.4,-23,94.1,-4.6,85.4,7.9C76.7,20.3,57.7,26.9,46.4,40.4C35,53.8,31.4,74.2,21.2,81.5C10.9,88.9,-5.9,83.2,-16.9,72.9C-27.8,62.6,-32.8,47.7,-39,36.2C-45.2,24.7,-52.5,16.7,-59.9,4.9C-67.3,-6.8,-74.7,-22.2,-70.5,-32.5C-66.3,-42.9,-50.3,-48.2,-36.6,-53.6C-22.9,-59,-11.5,-64.5,-0.2,-64.1C11,-63.8,22,-57.6,37.1,-52.8Z" transform="translate(100 100)" />
</svg>
