<?xml version="1.0" standalone="no"?>
<svg viewBox="0 0 200 200" xmlns="http://www.w3.org/2000/svg">
  <path fill="#EAB308" d="M43.8,-60.7C57.3,-59.5,69.3,-48.3,72.1,-35C74.9,-21.7,68.7,-6.4,65.2,8.5C61.7,23.4,61,37.9,55.2,51.9C49.4,66,38.4,79.7,26,78.9C13.7,78,-0.1,62.6,-11,52.5C-21.8,42.4,-29.8,37.5,-41.4,31.7C-53,25.8,-68.2,18.9,-70.7,9.4C-73.2,0,-62.9,-12,-57.5,-27.2C-52,-42.3,-51.4,-60.7,-42.6,-64C-33.8,-67.4,-16.9,-55.9,-0.9,-54.5C15.1,-53.1,30.3,-61.9,43.8,-60.7Z" transform="translate(100 100)" />
</svg>
